<?xml version="1.0" encoding="UTF-8"?>
<svg id="_レイヤー_1" xmlns="http://www.w3.org/2000/svg" version="1.1" viewBox="0 0 334 100">
  <!-- Generator: Adobe Illustrator 30.3.0, SVG Export Plug-In . SVG Version: 2.1.3 Build 182)  -->
  <defs>
    <style>
      .st0 {
        stroke: #000;
      }

      .st0, .st1, .st2 {
        stroke-miterlimit: 10;
        stroke-width: 2px;
      }

      .st3 {
        isolation: isolate;
      }

      .st4 {
        fill: #2c2c2a;
      }

      .st1 {
        fill: #e9250e;
        stroke: #e9250e;
      }

      .st2 {
        fill: #6e6e6e;
        stroke: #6e6e6e;
      }
    </style>
  </defs>
  <g>
    <circle class="st1" cx="47.29" cy="50" r="4.7"/>
    <circle class="st0" cx="64.52" cy="50" r="3.52"/>
    <circle class="st0" cx="55.9" cy="64.96" r="3.52"/>
    <circle class="st0" cx="38.67" cy="64.96" r="3.52"/>
    <circle class="st0" cx="30.06" cy="50" r="3.52"/>
    <circle class="st0" cx="38.67" cy="35.04" r="3.52"/>
    <circle class="st0" cx="55.9" cy="35.04" r="3.52"/>
    <circle class="st2" cx="81.75" cy="50" r="2.19"/>
    <circle class="st2" cx="77.05" cy="67.23" r="2.19"/>
    <circle class="st2" cx="64.52" cy="79.76" r="2.19"/>
    <circle class="st2" cx="47.29" cy="84.46" r="2.19"/>
    <circle class="st2" cx="30.06" cy="79.76" r="2.19"/>
    <circle class="st2" cx="17.53" cy="67.23" r="2.19"/>
    <circle class="st2" cx="12.83" cy="50" r="2.19"/>
    <circle class="st2" cx="17.53" cy="32.77" r="2.19"/>
    <circle class="st2" cx="30.06" cy="20.24" r="2.19"/>
    <circle class="st2" cx="47.29" cy="15.54" r="2.19"/>
    <circle class="st2" cx="64.52" cy="20.24" r="2.19"/>
    <circle class="st2" cx="77.05" cy="32.77" r="2.19"/>
  </g>
  <g class="st3">
    <g class="st3">
      <path class="st4" d="M130.07,36.91h-6.1c-.54-4.12-2.48-6.17-5.81-6.17-2.16,0-3.77.51-4.85,1.54s-1.62,2.57-1.62,4.63c0,1.52.59,2.97,1.76,4.34l13.01,14.55c2.4,2.7,3.6,5.59,3.6,8.67v3.01c0,3.33-1.2,6.21-3.6,8.64s-5.29,3.64-8.67,3.64h-6.1c-4.07,0-7.13-1.02-9.19-3.05-2.06-2.03-3.09-5.11-3.09-9.22h6.17v1.03c0,1.67.64,2.94,1.91,3.82,1.27.88,2.67,1.32,4.19,1.32,2.16,0,3.71-.53,4.67-1.58s1.43-2.58,1.43-4.59c0-1.57-.59-3.01-1.76-4.34l-13.01-14.55c-2.4-2.65-3.6-5.54-3.6-8.67v-3.01c0-3.33,1.2-6.21,3.6-8.64s5.29-3.64,8.67-3.64h6.1c7.69,0,11.78,4.09,12.27,12.27h.02Z"/>
      <path class="st4" d="M155.5,79.76V24.63h24.55c3.33,0,6.2,1.21,8.6,3.64,2.4,2.43,3.6,5.3,3.6,8.64v6.1c0,3.33-1.2,6.21-3.6,8.64-2.4,2.43-5.27,3.64-8.6,3.64h-12.28v24.48h-12.27ZM167.78,49.11h6.1c1.71,0,3.17-.6,4.37-1.8s1.8-2.63,1.8-4.3v-6.1c0-1.71-.6-3.17-1.8-4.37s-2.66-1.8-4.37-1.8h-6.1v18.38h0Z"/>
      <path class="st4" d="M230.03,24.63h12.27c3.33,0,6.2,1.21,8.6,3.64,2.4,2.43,3.6,5.3,3.6,8.64v30.58c0,3.33-1.2,6.21-3.6,8.64-2.4,2.43-5.27,3.64-8.6,3.64h-12.27c-3.33,0-6.21-1.2-8.64-3.6s-3.64-5.29-3.64-8.67v-30.58c0-3.38,1.21-6.27,3.64-8.67s5.3-3.6,8.64-3.6v-.02ZM230.03,36.91v30.58c0,1.67.6,3.11,1.8,4.34s2.63,1.84,4.3,1.84,3.17-.61,4.37-1.84c1.2-1.22,1.8-2.67,1.8-4.34v-30.58c0-1.71-.6-3.17-1.8-4.37s-2.66-1.8-4.37-1.8-3.1.6-4.3,1.8c-1.2,1.2-1.8,2.66-1.8,4.37Z"/>
      <path class="st4" d="M286.19,79.76V30.73h-12.28v-6.1h36.75v6.1h-12.28v49.03h-12.2.01Z"/>
    </g>
  </g>
</svg>