<?xml version="1.0" encoding="UTF-8"?>
<svg id="_レイヤー_1" data-name="レイヤー_1" xmlns="http://www.w3.org/2000/svg" version="1.1" viewBox="0 0 520 100">
  <!-- Generator: Adobe Illustrator 30.3.0, SVG Export Plug-In . SVG Version: 2.1.3 Build 182)  -->
  <defs>
    <style>
      .st0 {
        font-family: KozGoPr6N-Regular-83pv-RKSJ-H, 'Kozuka Gothic Pr6N';
        font-size: 64.3px;
        isolation: isolate;
        letter-spacing: .18em;
      }

      .st0, .st1 {
        fill: #2c2c2a;
      }

      .st2 {
        fill: #e9250e;
      }

      .st3 {
        fill: #888780;
      }
    </style>
  </defs>
  <circle class="st2" cx="51.99" cy="50.11" r="4.7"/>
  <circle class="st1" cx="69.22" cy="50.11" r="3.52"/>
  <circle class="st1" cx="60.6" cy="65.07" r="3.52"/>
  <circle class="st1" cx="43.37" cy="65.07" r="3.52"/>
  <circle class="st1" cx="34.76" cy="50.11" r="3.52"/>
  <circle class="st1" cx="43.37" cy="35.15" r="3.52"/>
  <circle class="st1" cx="60.6" cy="35.15" r="3.52"/>
  <circle class="st3" cx="86.45" cy="50.11" r="2.19"/>
  <circle class="st3" cx="81.75" cy="67.34" r="2.19"/>
  <circle class="st3" cx="69.22" cy="79.87" r="2.19"/>
  <circle class="st3" cx="51.99" cy="84.57" r="2.19"/>
  <circle class="st3" cx="34.76" cy="79.87" r="2.19"/>
  <circle class="st3" cx="22.23" cy="67.34" r="2.19"/>
  <circle class="st3" cx="17.53" cy="50.11" r="2.19"/>
  <circle class="st3" cx="22.23" cy="32.88" r="2.19"/>
  <circle class="st3" cx="34.76" cy="20.35" r="2.19"/>
  <circle class="st3" cx="51.99" cy="15.65" r="2.19"/>
  <circle class="st3" cx="69.22" cy="20.35" r="2.19"/>
  <circle class="st3" cx="81.75" cy="32.88" r="2.19"/>
  <text class="st0" transform="translate(103.09 73.69)"><tspan x="0" y="0">SPOT</tspan></text>
</svg>