<?xml version="1.0" encoding="UTF-8"?>
<svg id="_レイヤー_1" data-name="レイヤー_1" xmlns="http://www.w3.org/2000/svg" version="1.1" viewBox="0 0 160 160">
  <!-- Generator: Adobe Illustrator 30.3.0, SVG Export Plug-In . SVG Version: 2.1.3 Build 182)  -->
  <defs>
    <style>
      .st0 {
        font-family: KozGoPr6N-Regular-83pv-RKSJ-H, 'Kozuka Gothic Pr6N';
        font-size: 30px;
        isolation: isolate;
        letter-spacing: .22em;
      }

      .st0, .st1 {
        fill: #2c2c2a;
      }

      .st2 {
        fill: #e9250e;
      }

      .st3 {
        fill: #888780;
      }
    </style>
  </defs>
  <circle class="st2" cx="80" cy="68" r="5"/>
  <circle class="st1" cx="99" cy="68" r="3.8"/>
  <circle class="st1" cx="89.5" cy="84.5" r="3.8"/>
  <circle class="st1" cx="70.5" cy="84.5" r="3.8"/>
  <circle class="st1" cx="61" cy="68" r="3.8"/>
  <circle class="st1" cx="70.5" cy="51.5" r="3.8"/>
  <circle class="st1" cx="89.5" cy="51.5" r="3.8"/>
  <circle class="st3" cx="118" cy="68" r="2.5"/>
  <circle class="st3" cx="113" cy="87" r="2.5"/>
  <circle class="st3" cx="99" cy="101" r="2.5"/>
  <circle class="st3" cx="80" cy="106" r="2.5"/>
  <circle class="st3" cx="61" cy="101" r="2.5"/>
  <circle class="st3" cx="47" cy="87" r="2.5"/>
  <circle class="st3" cx="42" cy="68" r="2.5"/>
  <circle class="st3" cx="47" cy="49" r="2.5"/>
  <circle class="st3" cx="61" cy="35" r="2.5"/>
  <circle class="st3" cx="80" cy="30" r="2.5"/>
  <circle class="st3" cx="99" cy="35" r="2.5"/>
  <circle class="st3" cx="113" cy="49" r="2.5"/>
  <text class="st0" transform="translate(34.66 137.65)"><tspan x="0" y="0">SPOT</tspan></text>
</svg>