<?xml version="1.0" encoding="UTF-8"?>
<svg id="_レイヤー_1" xmlns="http://www.w3.org/2000/svg" version="1.1" viewBox="0 0 334 100">
  <!-- Generator: Adobe Illustrator 30.3.0, SVG Export Plug-In . SVG Version: 2.1.3 Build 182)  -->
  <defs>
    <style>
      .st0 {
        stroke: #000;
      }

      .st0, .st1, .st2 {
        stroke-miterlimit: 10;
        stroke-width: 2px;
      }

      .st3 {
        fill: #2c2c2a;
        font-family: Silom, Silom;
        font-size: 73.5px;
        letter-spacing: .18em;
      }

      .st3, .st4 {
        isolation: isolate;
      }

      .st1 {
        fill: #6e6e6e;
        stroke: #6e6e6e;
      }

      .st2 {
        fill: #e9250e;
        stroke: #e9250e;
      }
    </style>
  </defs>
  <g>
    <circle class="st2" cx="47.29" cy="50" r="4.7"/>
    <circle class="st0" cx="64.52" cy="50" r="3.52"/>
    <circle class="st0" cx="55.9" cy="64.96" r="3.52"/>
    <circle class="st0" cx="38.67" cy="64.96" r="3.52"/>
    <circle class="st0" cx="30.06" cy="50" r="3.52"/>
    <circle class="st0" cx="38.67" cy="35.04" r="3.52"/>
    <circle class="st0" cx="55.9" cy="35.04" r="3.52"/>
    <circle class="st1" cx="81.75" cy="50" r="2.19"/>
    <circle class="st1" cx="77.05" cy="67.23" r="2.19"/>
    <circle class="st1" cx="64.52" cy="79.76" r="2.19"/>
    <circle class="st1" cx="47.29" cy="84.46" r="2.19"/>
    <circle class="st1" cx="30.06" cy="79.76" r="2.19"/>
    <circle class="st1" cx="17.53" cy="67.23" r="2.19"/>
    <circle class="st1" cx="12.83" cy="50" r="2.19"/>
    <circle class="st1" cx="17.53" cy="32.77" r="2.19"/>
    <circle class="st1" cx="30.06" cy="20.24" r="2.19"/>
    <circle class="st1" cx="47.29" cy="15.54" r="2.19"/>
    <circle class="st1" cx="64.52" cy="20.24" r="2.19"/>
    <circle class="st1" cx="77.05" cy="32.77" r="2.19"/>
  </g>
  <g class="st4">
    <g class="st4">
      <text class="st3" transform="translate(93.32 79.76)"><tspan x="0" y="0">SPOT</tspan></text>
    </g>
  </g>
</svg>